name analog
datacolumns 19
datarows 18
range 0.34 0.34850000000000003
endheader
time	ground_force_vx	ground_force_vy	ground_force_vz	ground_force_px	ground_force_py	ground_force_pz	l_ground_force_vx	l_ground_force_vy	l_ground_force_vz	l_ground_force_px	l_ground_force_py	l_ground_force_pz	ground_torque_x	ground_torque_y	ground_torque_z	l_ground_torque_x	l_ground_torque_y	l_ground_torque_z
0.34	-0.0	-0.0	-0.0	12.998039245605469	53.29106140136719	-573.24365234375	17.63644027709961	-48.99645614624024	-551.5415649414062	-0.0	-0.0	-0.0	-0.0	-0.0	-0.0	136745.234375	6264.8525390625	-6210.5234375
0.3405	-0.0	-0.0	-0.0	12.692843437194824	55.33049774169922	-576.90283203125	17.6368465423584	-50.79175567626953	-555.849609375	-0.0	-0.0	-0.0	-0.0	-0.0	-0.0	137314.703125	7562.67529296875	-6263.171875
0.341	-0.0	-0.0	-0.0	11.710914611816406	57.45432662963867	-577.822265625	17.631267547607422	-52.52946853637695	-559.51904296875	-0.0	-0.0	-0.0	-0.0	-0.0	-0.0	137767.703125	8741.12109375	-6152.2841796875
0.3415	-0.0	-0.0	-0.0	11.65290641784668	59.4886474609375	-582.560302734375	17.94928741455078	-54.83098602294922	-563.49755859375	-0.0	-0.0	-0.0	-0.0	-0.0	-0.0	138318.28125	9797.783203125	-6133.16259765625
0.342	-0.0	-0.0	-0.0	11.603803634643556	61.14987182617188	-582.2760009765625	17.93448257446289	-56.795047760009766	-566.6397705078125	-0.0	-0.0	-0.0	-0.0	-0.0	-0.0	138970.5	10948.630859375	-6068.607421875
0.3425	-0.0	-0.0	-0.0	10.686366081237791	61.9603271484375	-583.1500854492188	17.324119567871094	-58.54886245727539	-568.3111572265625	-0.0	-0.0	-0.0	-0.0	-0.0	-0.0	138964.15625	12236.677734375	-5929.09130859375
0.343	-0.0	-0.0	-0.0	9.450345993041992	63.19133377075195	-582.5991821289062	16.808547973632812	-60.53512573242188	-569.0722045898438	-0.0	-0.0	-0.0	-0.0	-0.0	-0.0	138871.078125	13442.640625	-5953.43896484375
0.3435	-0.0	-0.0	-0.0	8.500972747802734	64.04753112792969	-582.0062255859375	16.047985076904297	-61.7647705078125	-569.5004272460938	-0.0	-0.0	-0.0	-0.0	-0.0	-0.0	138740.046875	14818.8564453125	-6112.16845703125
0.34400000000000003	-0.0	-0.0	-0.0	6.90579080581665	65.29059600830078	-581.9671630859375	14.821187019348145	-63.825714111328125	-569.6738891601562	-0.0	-0.0	-0.0	-0.0	-0.0	-0.0	138277.671875	16108.134765625	-6256.88916015625
0.34450000000000003	-0.0	-0.0	-0.0	5.481289863586426	66.7462158203125	-582.729736328125	14.003141403198242	-66.04747009277344	-569.604736328125	-0.0	-0.0	-0.0	-0.0	-0.0	-0.0	137956.6875	17119.931640625	-6270.37451171875
0.34500000000000003	-0.0	-0.0	-0.0	4.243804454803467	67.91952514648438	-582.0843505859375	12.705628395080566	-67.75163269042969	-569.8762817382812	-0.0	-0.0	-0.0	-0.0	-0.0	-0.0	137696.15625	18297.529296875	-6339.947265625
0.34550000000000003	-0.0	-0.0	-0.0	4.309048652648926	69.2187728881836	-581.334228515625	11.559112548828123	-69.04096984863281	-566.8833618164062	-0.0	-0.0	-0.0	-0.0	-0.0	-0.0	137053.984375	19468.123046875	-6428.6572265625
0.34600000000000003	-0.0	-0.0	-0.0	3.059968948364258	70.56881713867188	-581.3264770507812	10.463376998901367	-70.01702117919922	-567.807861328125	-0.0	-0.0	-0.0	-0.0	-0.0	-0.0	136604.984375	20604.625	-6630.50830078125
0.34650000000000003	-0.0	-0.0	-0.0	1.5745937824249268	71.94113159179688	-578.5263671875	9.297504425048828	-71.15213012695312	-566.3417358398438	-0.0	-0.0	-0.0	-0.0	-0.0	-0.0	136077.90625	21791.736328125	-6671.0478515625
0.34700000000000003	-0.0	-0.0	-0.0	0.7450997829437256	73.65501403808594	-578.9069213867188	8.143675804138184	-72.12086486816406	-564.1708374023438	-0.0	-0.0	-0.0	-0.0	-0.0	-0.0	135397.6875	22926.541015625	-6842.8583984375
0.34750000000000003	-0.0	-0.0	-0.0	-1.043060541152954	74.84209442138672	-579.2513427734375	7.133511543273926	-73.12123107910156	-563.36181640625	-0.0	-0.0	-0.0	-0.0	-0.0	-0.0	134782.28125	23986.962890625	-7100.14111328125
0.34800000000000003	-0.0	-0.0	-0.0	-1.8518271446228027	75.98931884765625	-580.165283203125	6.179321765899658	-73.72587585449219	-561.2553100585938	-0.0	-0.0	-0.0	-0.0	-0.0	-0.0	134142.046875	24837.8046875	-7033.23876953125
0.34850000000000003	-0.0	-0.0	-0.0	-2.7932791709899902	76.71517944335938	-579.2452392578125	5.504645824432373	-74.43400573730469	-559.9193725585938	-0.0	-0.0	-0.0	-0.0	-0.0	-0.0	133108.640625	25852.6953125	-7056.2021484375
